<svg width="45" height="45" viewBox="0 0 45 45" fill="none" xmlns="http://www.w3.org/2000/svg">
<g clip-path="url(#clip0_5_9)">
<rect width="45" height="45" rx="22.5" fill="#5865F2"/>
<path d="M33.8198 39.6073C33.8198 34.8514 29.6052 30.9602 24.4515 30.9602H20.7056C15.5537 30.9602 11.3373 34.8514 11.3373 39.6073V43.9309C11.3372 44.5156 11.4175 45.0975 11.576 45.6603H33.5811C33.7396 45.0975 33.8199 44.5156 33.8198 43.9309V39.6073Z" fill="#AABFF2"/>
<path d="M19.2147 18.576C19.2014 18.4461 19.1517 18.3226 19.0712 18.2198C17.9453 16.6944 16.8419 14.9667 15.4843 13.5503C14.3379 14.7331 13.221 15.9441 12.1345 17.1821C12.4509 17.7839 12.8262 18.3564 13.0459 18.9911L19.2147 18.576ZM32.8979 20.9298C32.7882 19.5458 32.5959 18.1696 32.322 16.8085C32.1298 15.7962 31.8933 14.7927 31.6129 13.8011V13.7786C30.1412 14.6208 28.6124 15.3351 27.1164 16.058V16.0753C27.0749 16.895 27.0196 17.8376 27.2236 18.6556" fill="#FFC239"/>
<path d="M31.6009 13.7457L31.5611 13.6039C31.3692 12.8827 31.1807 12.0336 30.6688 11.4888C30.4286 11.2197 30.0975 11.0489 29.7391 11.009C29.3806 10.9691 29.0201 11.063 28.7266 11.2726C28.0694 11.7275 27.7668 12.6285 27.5454 13.3618C27.2923 14.2369 27.1448 15.1391 27.1061 16.0493C28.6073 15.3229 30.1361 14.6121 31.6026 13.7699L31.6009 13.7457ZM13.4005 11.8347C12.956 11.5632 12.4251 11.3297 11.9253 11.4888C11.2923 11.6739 10.9914 12.4071 10.9499 13.0678C10.8928 14.1815 11.4013 15.1431 11.7074 16.1807C11.8163 16.5295 11.9594 16.8666 12.1346 17.1873C13.2237 15.9516 14.3406 14.7407 15.4844 13.5555C14.8663 12.895 14.1659 12.3167 13.4005 11.8347Z" fill="black"/>
<path d="M34.7933 22.3236V22.2129C34.774 22.0656 34.7671 21.9169 34.7726 21.7685C34.7576 21.2979 34.6748 20.8319 34.527 20.3849C34.3991 19.9962 34.2437 19.617 34.0618 19.2504C32.5848 16.2879 29.7642 15.7501 26.9366 15.6187C25.553 15.5495 24.3874 15.5045 23.1993 15.5045C19.3738 15.5045 16.5791 16.0233 14.1389 17.163C12.3091 18.0277 11.6001 19.3784 11.1781 20.4489C11.1106 20.7792 10.8236 21.8878 10.7544 22.2199L10.9481 22.3305L34.7933 22.3236Z" fill="#FFC239"/>
<path d="M36.6803 23.2696C36.2773 22.0261 35.1636 22.0227 34.0723 22.0763C33.9291 21.2334 33.6696 20.4144 33.301 19.643C32.0247 17.0834 29.5309 16.6113 26.9021 16.4816C22.7014 16.2741 18.3121 16.1617 14.5143 17.9447C12.7295 18.7835 12.2021 20.1739 11.8129 21.2254C11.742 21.4191 11.6867 21.6284 11.6262 21.8307C11.5753 21.82 11.5239 21.8119 11.4723 21.8065C8.65676 21.6214 7.96499 23.8904 8.00131 26.3012C8.0186 27.4686 8.09297 29.032 8.61006 30.106C9.15656 31.2387 10.3723 31.1436 11.4498 31.09C11.5444 31.0846 11.6383 31.0695 11.7299 31.045C12.6258 33.5925 14.8429 34.58 17.4232 34.9172C21.3818 35.436 25.8351 35.5761 29.7799 34.938C32.2374 34.5385 33.3356 33.0719 33.8267 31.0866C34.1488 31.0777 34.4685 31.0277 34.7779 30.9378C36.1614 30.5366 36.9293 30.0472 37.0763 28.5339C37.2354 26.9014 37.1887 24.8364 36.6803 23.2696Z" fill="#AABFF2"/>
<path d="M27.1166 23.2281C26.0789 22.4273 24.6348 22.3927 23.3931 22.3166C21.6514 22.2138 19.9037 22.3054 18.1824 22.5899C18.0228 22.6174 17.8679 22.6675 17.7223 22.7386C17.4228 22.7857 17.1446 22.9228 16.9247 23.1315C16.7048 23.3403 16.5536 23.611 16.491 23.9077C15.8892 26.3514 16.3769 29.4643 18.9935 30.4795C21.2607 31.3632 24.7144 31.3546 26.5925 29.7514C28.2856 28.3108 29.1504 24.8105 27.1166 23.2281Z" fill="#CBDAF7"/>
<path d="M20.4514 27.1556C19.8997 27.1556 19.3463 27.1556 18.7946 27.1677C18.6306 27.178 18.4775 27.253 18.3688 27.3763C18.2602 27.4995 18.2049 27.6609 18.2152 27.8249C18.2255 27.9888 18.3006 28.142 18.4238 28.2506C18.5471 28.3593 18.7084 28.4145 18.8724 28.4042C19.4241 28.4163 19.9775 28.4146 20.5309 28.4181C21.3455 28.4267 21.2642 27.1556 20.4514 27.1556ZM24.9634 27.4565C24.3512 27.4184 23.7373 27.3839 23.1233 27.3579C22.4212 27.3268 22.333 28.546 23.0403 28.5945C23.7079 28.6429 24.3754 28.6827 25.043 28.719C25.3889 28.7363 25.6552 28.361 25.6344 28.048C25.612 27.6744 25.3059 27.4773 24.9634 27.4565Z" fill="#AABFF2"/>
<path d="M13.4126 24.8815C11.8803 24.8815 12.0394 27.2525 13.5613 27.2525C15.0832 27.2525 14.9379 24.8815 13.4126 24.8815ZM30.9126 24.9905C29.2852 24.9905 29.4547 27.5102 31.0717 27.5102C32.6887 27.5102 32.5296 24.9905 30.9126 24.9905Z" fill="black"/>
<path d="M11.1227 24.7344C11.1227 24.2415 10.5261 24.0685 10.1767 24.2761C10.095 24.2492 10.0085 24.24 9.92288 24.249C9.83731 24.258 9.75462 24.2851 9.68026 24.3284C9.60591 24.3717 9.54158 24.4302 9.49151 24.5002C9.44145 24.5702 9.4068 24.65 9.38983 24.7344C9.15818 25.7477 9.10783 26.794 9.2411 27.8248C9.33968 28.5564 9.4936 29.3813 10.3358 29.537C10.4303 29.5542 10.5274 29.55 10.62 29.5245C10.7125 29.499 10.7982 29.453 10.8705 29.3898C10.9428 29.3267 10.9999 29.248 11.0376 29.1597C11.0753 29.0714 11.0925 28.9757 11.0881 28.8798C11.0483 27.5014 11.102 26.1179 11.1227 24.7344ZM35.2031 24.6548C35.182 24.5472 35.1272 24.449 35.0467 24.3744C34.9662 24.2998 34.8642 24.2527 34.7552 24.2398C34.6597 24.1963 34.5547 24.1777 34.4501 24.1857C34.3454 24.1937 34.2445 24.228 34.1566 24.2855C34.0688 24.343 33.9969 24.4217 33.9477 24.5144C33.8984 24.6071 33.8734 24.7107 33.875 24.8157C33.8923 26.1093 33.9718 27.4098 34.0583 28.6965C34.0706 28.8347 34.1265 28.9654 34.2179 29.0698C34.3092 29.1743 34.4314 29.247 34.5667 29.2776C36.5469 29.8119 35.4159 25.4798 35.2031 24.6548Z" fill="#7D94DF"/>
<path d="M13.6289 28.9784C13.3786 28.8979 13.1095 28.8979 12.8593 28.9784C12.5909 29.0609 12.3604 29.2357 12.2085 29.4718C12.0566 29.7079 11.9931 29.9901 12.0292 30.2685C12.0788 30.5867 12.2484 30.8739 12.5031 31.071C12.7578 31.2682 13.0783 31.3603 13.3989 31.3286C13.4888 31.3147 13.5754 31.2849 13.6548 31.2404C13.6929 31.2404 13.7292 31.2508 13.769 31.2404C14.0372 31.2108 14.2847 31.0822 14.4632 30.8797C14.6416 30.6773 14.7382 30.4156 14.734 30.1457C14.737 29.8459 14.6234 29.5566 14.4173 29.3388C14.2111 29.121 13.9284 28.9918 13.6289 28.9784ZM32.1613 29.7497C31.9994 29.6505 31.8191 29.5851 31.6313 29.5574C31.4434 29.5298 31.2519 29.5405 31.0683 29.5888C30.8514 29.5968 30.6403 29.662 30.4566 29.7777C30.2729 29.8934 30.123 30.0555 30.022 30.2478C29.9655 30.3627 29.9457 30.4923 29.9655 30.6189C29.9853 30.7455 30.0437 30.8629 30.1327 30.9551C30.297 31.7627 31.1531 32.3023 31.959 31.8942C32.7995 31.4791 33.0036 30.2927 32.1613 29.7497Z" fill="#FF766C"/>
</g>
<defs>
<clipPath id="clip0_5_9">
<rect width="45" height="45" rx="22.5" fill="white"/>
</clipPath>
</defs>
</svg>
